<?xml version="1.0" encoding="utf-8"?>
<svg version="1.1" id="Layer_1" xmlns="http://www.w3.org/2000/svg" xmlns:xlink="http://www.w3.org/1999/xlink" x="0px" y="0px"
	 viewBox="0 0 300 300" enable-background="new 0 0 300 300" xml:space="preserve">
<rect x="51.667" y="240.565" width="84.323" height="7.03"/>
<polygon points="135.99,65.075 135.99,58.045 25.161,58.045 25.161,221.09 31.916,221.09 31.916,153.602 123.231,153.602 
	123.231,146.571 31.916,146.571 31.916,65.075 "/>
<path d="M177.77,167.531v80.064h-6.754V58.045h56.916c18.596,0,33.043,4.882,43.344,14.646
	c10.297,9.764,15.447,23.326,15.447,40.684c0,17.185-5.025,30.463-15.072,39.837c-10.051,9.373-24.33,14.147-42.844,14.32H177.77z
	 M177.77,160.501h50.162c16.428,0,29.207-4.121,38.34-12.368c9.131-8.244,13.697-19.743,13.697-34.499
	c0-15.274-4.566-27.187-13.697-35.736c-9.133-8.547-21.912-12.823-38.34-12.823H177.77V160.501z"/>
</svg>
